<svg id="Layer_1" data-name="Layer 1" xmlns="http://www.w3.org/2000/svg" viewBox="0 0 408.8 191.33"><path d="M0,145.17c1.76-3.36,4.6-4.29,8.26-4.28,32.61.08,65.21,0,97.81.06,1.2,0,2.78-.32,3.51.3,1.76,1.5,4.22,3.39,4.33,5.26s-1.93,4.28-3.65,5.72c-1.09.92-3.31.66-5,.66-32.07,0-64.14,0-96.21.07-3.67,0-6.74-.82-9-3.8Z"/><path d="M268.28,0Q328,0,387.64,0c11,0,18.63,5.52,20.67,15a28,28,0,0,1,.47,5.94q0,74.66,0,149.31c0,13.36-7.66,21-21.1,21q-119.37,0-238.73,0c-13.33,0-21-7.75-21-21.16q0-74.46,0-148.91C128,7.65,135.66,0,149.31,0Q208.8,0,268.28,0ZM396.74,31.28c-1.73,1.27-2.9,2.09-4,3q-45.12,34.94-90.26,69.83a68.81,68.81,0,0,1-12.65,8.24c-19.11,8.82-37,6-53.48-6.68Q190.06,69.9,143.87,34.08c-1.08-.84-2.23-1.58-3.72-2.62V159.85c1.49-1,2.56-1.71,3.56-2.48q30.45-23.56,60.9-47.13a22.08,22.08,0,0,1,4-2.61c2.64-1.24,5.46-.59,6.62,1.8.94,1.94.71,4.73.2,7-.3,1.27-2.14,2.24-3.39,3.21q-34.38,26.66-68.77,53.28c-.9.7-1.75,1.49-2.63,2.24,2.1,4.17,5.68,4.23,9.36,4.23H386.68c1.2,0,2.53.28,3.57-.14a72.51,72.51,0,0,0,6.67-3.51c-1.82-1.52-2.7-2.31-3.63-3q-33.93-26.25-67.84-52.51c-1.46-1.14-3.52-2.22-4-3.74-.68-2.14-1-5.34.13-6.83s4.29-1.82,6.57-1.85c1.32,0,2.73,1.49,4,2.46Q362.91,134,393.67,157.8c.87.68,1.83,1.25,3.07,2.08ZM139.86,15.52c1.5,1.34,2.15,2,2.88,2.55Q193.52,57.4,244.38,96.62a44.84,44.84,0,0,0,13.28,7c12.89,4.13,24.59,1,35.16-7.16Q338.38,61.13,384,25.87c4.08-3.15,8.15-6.32,12.21-9.47-1.95-4.18-5.34-4.42-8.91-4.42H149.44a7.47,7.47,0,0,0-2.77.12C144.5,13,142.43,14.21,139.86,15.52Z"/><path d="M70,108.93q17.54,0,35.08,0a25.46,25.46,0,0,1,4.37.24,5.77,5.77,0,0,1,.37,11.29,20.81,20.81,0,0,1-4.74.42q-35.08,0-70.17,0c-6.31,0-9.4-2.1-9.24-6.23.15-4,3-5.74,9.24-5.74Q52.45,108.92,70,108.93Z"/><path d="M82.6,88.83c-7.43,0-14.86,0-22.3,0a32.69,32.69,0,0,1-3.57-.16c-3.45-.36-5.38-2.5-5.39-5.78s1.94-5.42,5.36-5.83a35.06,35.06,0,0,1,4-.19q22.1,0,44.2,0a27.6,27.6,0,0,1,4.36.27c3.2.51,5,2.5,5,5.71,0,3.42-1.92,5.43-5.32,5.81a51.48,51.48,0,0,1-5.56.17C96.41,88.84,89.51,88.83,82.6,88.83Z"/><path d="M95.44,56.74c-4.12,0-8.25,0-12.37,0-3.63,0-5.72-2-6.17-5.53A5.79,5.79,0,0,1,82.77,45q12.77-.36,25.53,0c3.87.11,6,2.76,5.92,6.16s-2.4,5.51-6.41,5.63-8.25,0-12.37,0Z"/></svg>